<svg width="763" height="249" viewBox="0 0 763 249" fill="none" xmlns="http://www.w3.org/2000/svg">
<path d="M754.021 124.292C754.021 192.937 698.374 248.585 629.729 248.585C561.084 248.585 505.437 192.937 505.437 124.292C505.437 55.6476 561.084 0 629.729 0C664.14 0 695.286 13.9842 717.792 36.5796C722.41 33.2774 728.066 31.3342 734.176 31.3342C749.751 31.3342 762.377 43.9602 762.377 59.535C762.377 70.2977 756.348 79.6522 747.483 84.4053C751.723 96.9254 754.021 110.34 754.021 124.292Z" fill="#2570EB"/>
<path d="M29.0738 179.65C20.3104 179.65 13.2482 177.124 7.88704 172.073C2.62901 166.918 0 160.115 0 151.662V96.9231C0 88.4701 2.62901 81.718 7.88704 76.6667C13.2482 71.5125 20.3104 68.9353 29.0738 68.9353C37.8372 68.9353 44.8994 71.5125 50.2605 76.6667C55.7248 81.718 58.4569 88.5216 58.4569 97.0778V103.108C58.4569 103.624 58.2507 104.088 57.8383 104.5C57.529 104.809 57.1166 104.964 56.6011 104.964H42.3735C41.858 104.964 41.3941 104.809 40.9817 104.5C40.6724 104.088 40.5177 103.624 40.5177 103.108V96.7685C40.5177 93.0574 39.4352 90.0679 37.2701 87.8C35.2082 85.5321 32.476 84.3982 29.0738 84.3982C25.6715 84.3982 22.9394 85.5321 20.8775 87.8C18.8155 90.0679 17.7845 93.0574 17.7845 96.7685V151.816C17.7845 155.527 18.8155 158.517 20.8775 160.785C22.9394 163.053 25.6715 164.187 29.0738 164.187C32.476 164.187 35.2082 163.053 37.2701 160.785C39.4352 158.517 40.5177 155.527 40.5177 151.816V136.972C40.5177 136.457 40.26 136.199 39.7445 136.199H30.311C29.7955 136.199 29.3315 136.044 28.9191 135.735C28.6098 135.323 28.4552 134.859 28.4552 134.343V123.055C28.4552 122.54 28.6098 122.128 28.9191 121.818C29.3315 121.406 29.7955 121.2 30.311 121.2H56.6011C57.1166 121.2 57.529 121.406 57.8383 121.818C58.2507 122.128 58.4569 122.54 58.4569 123.055V151.662C58.4569 160.115 55.7248 166.918 50.2605 172.073C44.8994 177.124 37.8372 179.65 29.0738 179.65Z" fill="#2570EB"/>
<path fill-rule="evenodd" clip-rule="evenodd" d="M116.002 178.413C114.764 178.413 114.094 177.846 113.991 176.712L111.053 160.476C111.053 159.96 110.744 159.702 110.125 159.702H87.5464C86.9278 159.702 86.6185 159.96 86.6185 160.476L83.6802 176.712C83.5771 177.846 82.907 178.413 81.6698 178.413H67.5968C66.1534 178.413 65.5864 177.742 65.8957 176.402L88.7836 71.8733C88.9898 70.7393 89.6599 70.1723 90.794 70.1723H107.187C108.321 70.1723 108.991 70.7393 109.197 71.8733L132.085 176.402V177.021C132.085 177.949 131.518 178.413 130.384 178.413H116.002ZM89.4022 144.858C89.2991 145.374 89.5568 145.631 90.1754 145.631H107.341C107.96 145.631 108.218 145.374 108.115 144.858L99.145 95.9954C99.0419 95.6861 98.8872 95.5315 98.681 95.5315C98.4748 95.5315 98.3202 95.6861 98.2171 95.9954L89.4022 144.858Z" fill="#2570EB"/>
<path fill-rule="evenodd" clip-rule="evenodd" d="M183.436 176.866C183.746 177.897 184.416 178.413 185.447 178.413H200.293C201.427 178.413 201.994 177.949 201.994 177.021C201.994 176.712 201.943 176.454 201.84 176.248L186.684 129.704C186.581 129.189 186.736 128.88 187.148 128.777C191.581 126.406 195.035 122.901 197.509 118.262C199.984 113.623 201.221 108.108 201.221 101.717C201.221 95.5315 200.035 90.0679 197.664 85.326C195.396 80.4809 192.148 76.7698 187.921 74.1927C183.797 71.5125 179.003 70.1723 173.539 70.1723H144.465C143.95 70.1723 143.486 70.3785 143.073 70.7908C142.764 71.1001 142.609 71.5125 142.609 72.0279V176.557C142.609 177.072 142.764 177.536 143.073 177.949C143.486 178.258 143.95 178.413 144.465 178.413H158.693C159.208 178.413 159.621 178.258 159.93 177.949C160.342 177.536 160.549 177.072 160.549 176.557V132.642C160.549 132.127 160.806 131.869 161.322 131.869H169.518C169.827 131.869 170.085 132.075 170.291 132.488L183.436 176.866ZM160.549 86.4084C160.549 85.8929 160.806 85.6352 161.322 85.6352H170.755C174.467 85.6352 177.457 87.13 179.725 90.1194C182.096 93.0059 183.282 96.9231 183.282 101.871C183.282 106.819 182.096 110.737 179.725 113.623C177.457 116.509 174.467 117.953 170.755 117.953H161.322C160.806 117.953 160.549 117.695 160.549 117.18V86.4084Z" fill="#2570EB"/>
<path fill-rule="evenodd" clip-rule="evenodd" d="M259.021 178.413C257.783 178.413 257.113 177.846 257.01 176.712L254.072 160.476C254.072 159.96 253.763 159.702 253.144 159.702H230.565C229.947 159.702 229.638 159.96 229.638 160.476L226.699 176.712C226.596 177.846 225.926 178.413 224.689 178.413H210.616C209.172 178.413 208.605 177.742 208.915 176.402L231.803 71.8733C232.009 70.7393 232.679 70.1723 233.813 70.1723H250.206C251.34 70.1723 252.01 70.7393 252.216 71.8733L275.104 176.402V177.021C275.104 177.949 274.537 178.413 273.403 178.413H259.021ZM232.421 144.858C232.318 145.374 232.576 145.631 233.194 145.631H250.36C250.979 145.631 251.237 145.374 251.134 144.858L242.164 95.9954C242.061 95.6861 241.906 95.5315 241.7 95.5315C241.494 95.5315 241.339 95.6861 241.236 95.9954L232.421 144.858Z" fill="#2570EB"/>
<path d="M289.243 172.073C294.605 177.124 301.667 179.65 310.43 179.65C319.194 179.65 326.256 177.124 331.617 172.073C337.081 166.918 339.813 160.115 339.813 151.662V123.055C339.813 122.54 339.607 122.128 339.195 121.818C338.885 121.406 338.473 121.2 337.957 121.2H311.667C311.152 121.2 310.688 121.406 310.276 121.818C309.966 122.128 309.812 122.54 309.812 123.055V134.343C309.812 134.859 309.966 135.323 310.276 135.735C310.688 136.044 311.152 136.199 311.667 136.199H321.101C321.616 136.199 321.874 136.457 321.874 136.972V151.816C321.874 155.527 320.792 158.517 318.627 160.785C316.565 163.053 313.832 164.187 310.43 164.187C307.028 164.187 304.296 163.053 302.234 160.785C300.172 158.517 299.141 155.527 299.141 151.816V96.7685C299.141 93.0574 300.172 90.0679 302.234 87.8C304.296 85.5321 307.028 84.3982 310.43 84.3982C313.832 84.3982 316.565 85.5321 318.627 87.8C320.792 90.0679 321.874 93.0574 321.874 96.7685V103.108C321.874 103.624 322.029 104.088 322.338 104.5C322.75 104.809 323.214 104.964 323.73 104.964H337.957C338.473 104.964 338.885 104.809 339.195 104.5C339.607 104.088 339.813 103.624 339.813 103.108V97.0778C339.813 88.5216 337.081 81.718 331.617 76.6667C326.256 71.5125 319.194 68.9353 310.43 68.9353C301.667 68.9353 294.605 71.5125 289.243 76.6667C283.985 81.718 281.356 88.4701 281.356 96.9231V151.662C281.356 160.115 283.985 166.918 289.243 172.073Z" fill="#2570EB"/>
<path d="M408.618 83.7797C408.618 84.2951 408.412 84.759 408 85.1713C407.69 85.4806 407.278 85.6352 406.762 85.6352H373.359C372.843 85.6352 372.585 85.8929 372.585 86.4084V115.633C372.585 116.149 372.843 116.406 373.359 116.406H393.154C393.669 116.406 394.081 116.613 394.391 117.025C394.803 117.334 395.009 117.746 395.009 118.262V130.168C395.009 130.684 394.803 131.148 394.391 131.56C394.081 131.869 393.669 132.024 393.154 132.024H373.359C372.843 132.024 372.585 132.282 372.585 132.797V162.177C372.585 162.692 372.843 162.95 373.359 162.95H406.762C407.278 162.95 407.69 163.156 408 163.568C408.412 163.877 408.618 164.29 408.618 164.805V176.557C408.618 177.072 408.412 177.536 408 177.949C407.69 178.258 407.278 178.413 406.762 178.413H356.502C355.986 178.413 355.522 178.258 355.11 177.949C354.801 177.536 354.646 177.072 354.646 176.557V72.0279C354.646 71.5125 354.801 71.1001 355.11 70.7908C355.522 70.3785 355.986 70.1723 356.502 70.1723H406.762C407.278 70.1723 407.69 70.3785 408 70.7908C408.412 71.1001 408.618 71.5125 408.618 72.0279V83.7797Z" fill="#2570EB"/>
<path d="M472.731 70.1723C471.7 70.1723 470.926 70.5847 470.411 71.4094L455.719 97.8509C455.41 98.2632 455.101 98.2632 454.792 97.8509L439.791 71.4094C439.275 70.5847 438.502 70.1723 437.471 70.1723H423.243C422.728 70.1723 422.264 70.3785 421.852 70.7908C421.542 71.1001 421.388 71.5125 421.388 72.0279V176.557C421.388 177.072 421.542 177.536 421.852 177.949C422.264 178.258 422.728 178.413 423.243 178.413H437.471C437.986 178.413 438.399 178.258 438.708 177.949C439.121 177.536 439.327 177.072 439.327 176.557V103.572C439.327 103.16 439.43 102.954 439.636 102.954C439.842 102.954 440.048 103.108 440.255 103.418L453.709 127.849C454.224 128.674 454.688 129.086 455.101 129.086C455.513 129.086 455.977 128.674 456.493 127.849L469.947 103.418C470.153 103.108 470.359 102.954 470.566 102.954C470.772 102.954 470.875 103.16 470.875 103.572V176.557C470.875 177.072 471.03 177.536 471.339 177.949C471.751 178.258 472.215 178.413 472.731 178.413H486.958C487.474 178.413 487.886 178.258 488.195 177.949C488.608 177.536 488.814 177.072 488.814 176.557V72.0279C488.814 71.5125 488.608 71.1001 488.195 70.7908C487.886 70.3785 487.474 70.1723 486.958 70.1723H472.731Z" fill="#2570EB"/>
<path d="M734.176 72.3536C741.256 72.3536 746.995 66.6146 746.995 59.5351C746.995 52.4556 741.256 46.7166 734.176 46.7166C727.097 46.7166 721.358 52.4556 721.358 59.5351C721.358 66.6146 727.097 72.3536 734.176 72.3536Z" fill="white"/>
<path d="M568.397 179.65C560.047 179.65 553.707 177.343 549.377 172.73C545.151 168.117 543.038 161.505 543.038 152.894V144.129H559.119V153.662C559.119 160.736 562.057 164.273 567.933 164.273C570.82 164.273 572.984 163.401 574.428 161.659C575.974 159.813 576.747 156.635 576.747 152.125V143.36C576.747 138.439 575.871 134.954 574.118 132.904C572.366 130.751 569.531 129.674 565.614 129.674H559.892V114.297H566.078C569.479 114.297 572.005 113.426 573.654 111.683C575.407 109.941 576.283 107.019 576.283 102.918V95.0762C576.283 91.3857 575.51 88.6691 573.964 86.9264C572.417 85.1837 570.356 84.3123 567.778 84.3123C562.315 84.3123 559.583 87.644 559.583 94.3073V101.381H543.501V95.6913C543.501 87.0801 545.615 80.468 549.841 75.8549C554.171 71.2419 560.356 68.9353 568.397 68.9353C576.541 68.9353 582.726 71.2419 586.953 75.8549C591.179 80.3655 593.292 86.9264 593.292 95.5375V99.3817C593.292 105.225 592.313 109.941 590.354 113.529C588.396 117.014 585.355 119.526 581.231 121.063V121.371C585.664 123.011 588.86 125.676 590.818 129.367C592.777 133.057 593.756 137.773 593.756 143.514V153.047C593.756 161.659 591.592 168.271 587.262 172.884C583.035 177.394 576.747 179.65 568.397 179.65Z" fill="white"/>
<path fill-rule="evenodd" clip-rule="evenodd" d="M631.237 179.65C622.887 179.65 616.496 177.292 612.063 172.576C607.63 167.861 605.414 161.197 605.414 152.586V96.9214C605.414 78.264 614.073 68.9353 631.392 68.9353C639.639 68.9353 645.927 71.2931 650.257 76.0087C654.587 80.6218 656.751 87.2852 656.751 95.9988V97.9978H640.67V94.9224C640.67 87.849 637.732 84.3123 631.856 84.3123C628.66 84.3123 626.289 85.2862 624.743 87.2339C623.197 89.1817 622.423 92.6158 622.423 97.5365V118.142H622.733C625.722 111.888 630.877 108.762 638.196 108.762C644.381 108.762 649.071 110.863 652.267 115.066C655.463 119.269 657.061 125.369 657.061 133.365V152.586C657.061 161.197 654.844 167.861 650.411 172.576C645.979 177.292 639.587 179.65 631.237 179.65ZM640.051 153.816V134.749C640.051 127.675 637.113 124.139 631.237 124.139C625.361 124.139 622.423 127.675 622.423 134.749V153.816C622.423 160.787 625.361 164.273 631.237 164.273C637.113 164.273 640.051 160.787 640.051 153.816Z" fill="white"/>
<path fill-rule="evenodd" clip-rule="evenodd" d="M673.512 172.576C677.945 177.292 684.336 179.65 692.686 179.65C701.036 179.65 707.427 177.292 711.86 172.576C716.293 167.861 718.509 161.197 718.509 152.586V95.9988C718.509 87.3877 716.293 80.7243 711.86 76.0087C707.427 71.2931 701.036 68.9353 692.686 68.9353C684.336 68.9353 677.945 71.2931 673.512 76.0087C669.079 80.7243 666.863 87.3877 666.863 95.9988V152.586C666.863 161.197 669.079 167.861 673.512 172.576ZM701.5 153.662C701.5 160.736 698.562 164.273 692.686 164.273C686.81 164.273 683.872 160.736 683.872 153.662V94.9224C683.872 87.849 686.81 84.3123 692.686 84.3123C698.562 84.3123 701.5 87.849 701.5 94.9224V153.662Z" fill="white"/>
</svg>
