<svg width="1000" height="1000" viewBox="0 0 1000 1000" fill="none" xmlns="http://www.w3.org/2000/svg">
<path d="M0 229.167C0 102.601 102.601 0 229.167 0H770.833C897.399 0 1000 102.601 1000 229.167V770.833C1000 897.399 897.399 1000 770.833 1000H229.167C102.601 1000 0 897.399 0 770.833V229.167Z" fill="#2570EB"/>
<path fill-rule="evenodd" clip-rule="evenodd" d="M500 857C697.166 857 857 697.166 857 500C857 302.835 697.166 143 500 143C302.835 143 143 302.835 143 500C143 697.166 302.835 857 500 857ZM500 714.2C618.3 714.2 714.2 618.3 714.2 500C714.2 381.701 618.3 285.8 500 285.8C381.701 285.8 285.8 381.701 285.8 500C285.8 618.3 381.701 714.2 500 714.2Z" fill="white"/>
</svg>
